# File created by Blade
# Date/Time:  Tue Apr 07 20:17:56 2015
# Frame Rate: 120.000 fps
#------------------------------------------------------
:FULLY-SPECIFIED
:DEGREES
958
root 5.543456 34.740316 -9.630624 25.987548 -15.918692 -45.482986
Spine -4.025252 4.927080 25.682687
Head 4.062346 11.060375 9.105109
LeftShoulder -31.554685 47.677202 6.882561
LeftArm 46.981413 -47.678360 -87.590401
LeftForeArm -2.235530 -0.000000 18.534612
LeftHand 13.381693 -0.000000 12.707290
LeftHandThumb1 -26.253704 0.000000 33.147579
RightShoulder -14.189960 -23.555772 -13.497328
RightArm -5.693249 -1.412054 80.221611
RightForeArm 37.240143 -0.000000 61.036308
RightHand 4.870884 -0.000000 14.523414
RightHandThumb1 -24.326973 -0.000000 -32.862282
LeftUpLeg -10.535969 2.950362 40.510597
LeftLeg 11.076226 -0.000000 -0.000000
LeftFoot -10.714815 19.071874 -13.776942
LeftToeBase -12.050631 -0.000000 0.000000
RightUpLeg -62.142289 -41.974977 -40.920930
RightLeg 152.584041 -0.000000 -0.000000
RightFoot 46.690811 12.195793 -4.046563
RightToeBase 38.744489 -0.000000 -0.000000
959
root 5.543234 34.740020 -9.595140 26.055043 -16.084253 -45.559421
Spine -4.017546 5.023719 25.740874
Head 4.189549 11.177419 9.278861
LeftShoulder -31.577557 47.651228 6.824462
LeftArm 47.294928 -47.765305 -87.725660
LeftForeArm -2.151398 -0.000000 18.613487
LeftHand 13.479908 -0.000000 12.418474
LeftHandThumb1 -26.253704 0.000000 33.147579
RightShoulder -14.309965 -23.605636 -13.470711
RightArm -5.829867 -1.317450 80.175678
RightForeArm 37.069702 -0.000000 61.317011
RightHand 4.790836 -0.000000 14.529735
RightHandThumb1 -24.326973 -0.000000 -32.862282
LeftUpLeg -10.430463 3.136884 40.530817
LeftLeg 11.195363 -0.000000 -0.000000
LeftFoot -10.937634 18.798914 -14.336718
LeftToeBase -11.772610 -0.000000 0.000000
RightUpLeg -61.902986 -41.886636 -41.227385
RightLeg 152.547464 -0.000000 -0.000000
RightFoot 46.693729 12.359451 -4.203714
RightToeBase 38.670293 -0.000000 -0.000000
960
root 5.540456 34.739036 -9.556401 26.097877 -16.258970 -45.620931
Spine -3.999201 5.081090 25.775050
Head 4.314067 11.311072 9.467707
LeftShoulder -31.573735 47.600073 6.803774
LeftArm 47.371112 -47.809445 -87.670011
LeftForeArm -2.141534 -0.000000 18.792279
LeftHand 13.372715 -0.000000 12.302599
LeftHandThumb1 -26.253704 0.000000 33.147579
RightShoulder -14.458621 -23.664946 -13.459989
RightArm -5.887591 -1.314335 80.140729
RightForeArm 36.735772 -0.000000 61.536453
RightHand 4.836076 -0.000000 14.431016
RightHandThumb1 -24.326973 -0.000000 -32.862282
LeftUpLeg -10.303067 3.274805 40.540879
LeftLeg 11.323705 -0.000000 -0.000000
LeftFoot -11.307348 18.495755 -15.175844
LeftToeBase -11.479529 -0.000000 0.000000
RightUpLeg -61.641866 -41.797468 -41.589021
RightLeg 152.499662 -0.000000 -0.000000
RightFoot 46.789861 12.566708 -4.370983
RightToeBase 38.566792 -0.000000 -0.000000
961
root 5.538465 34.737889 -9.517448 26.116496 -16.410076 -45.655785
Spine -3.978856 5.103460 25.795955
Head 4.465345 11.400974 9.674262
LeftShoulder -31.607087 47.557692 6.768352
LeftArm 47.590686 -47.870110 -87.780777
LeftForeArm -2.044521 -0.000000 18.970403
LeftHand 13.368893 0.000000 12.194540
LeftHandThumb1 -26.253704 0.000000 33.147579
RightShoulder -14.637284 -23.754604 -13.458105
RightArm -5.887670 -1.276219 80.109551
RightForeArm 36.452377 -0.000000 61.753818
RightHand 4.718405 -0.000000 14.597185
RightHandThumb1 -24.326973 -0.000000 -32.862282
LeftUpLeg -10.220780 3.436662 40.536466
LeftLeg 11.518849 -0.000000 -0.000000
LeftFoot -11.560625 18.180296 -15.906430
LeftToeBase -11.284128 -0.000000 0.000000
RightUpLeg -61.304706 -41.721992 -42.030130
RightLeg 152.491289 -0.000000 -0.000000
RightFoot 46.777930 12.804415 -4.550639
RightToeBase 38.555250 -0.000000 -0.000000
962
root 5.534690 34.738690 -9.479111 26.119963 -16.562990 -45.694771
Spine -3.946425 5.046190 25.813639
Head 4.612519 11.539390 9.884572
LeftShoulder -31.642706 47.540300 6.724704
LeftArm 47.634670 -47.939241 -87.787972
LeftForeArm -2.043947 -0.000000 19.226205
LeftHand 13.330788 -0.000000 12.240978
LeftHandThumb1 -26.253704 0.000000 33.147579
RightShoulder -14.746684 -23.819465 -13.481216
RightArm -5.872053 -1.266929 80.077907
RightForeArm 36.194489 -0.000000 61.947105
RightHand 4.570254 -0.000000 14.707183
RightHandThumb1 -24.326973 -0.000000 -32.862282
LeftUpLeg -10.144651 3.685719 40.554433
LeftLeg 11.778024 -0.000000 -0.000000
LeftFoot -11.970614 17.635810 -16.989119
LeftToeBase -10.520939 -0.000000 0.000000
RightUpLeg -60.976048 -41.619560 -42.467369
RightLeg 152.489000 -0.000000 -0.000000
RightFoot 46.816122 13.055900 -4.660391
RightToeBase 38.508437 -0.000000 -0.000000
963
root 5.527537 34.740970 -9.441853 26.107406 -16.684486 -45.705610
Spine -3.928932 4.918283 25.806733
Head 4.804640 11.663586 10.145049
LeftShoulder -31.729154 47.556519 6.636199
LeftArm 47.786904 -48.029969 -87.863064
LeftForeArm -1.988634 0.000000 19.396373
LeftHand 13.408354 -0.000000 12.308316
LeftHandThumb1 -26.253704 0.000000 33.147579
RightShoulder -14.808748 -23.904698 -13.517248
RightArm -5.848174 -1.279691 80.084426
RightForeArm 35.974231 -0.000000 62.156850
RightHand 4.521945 -0.000000 14.696900
RightHandThumb1 -24.326973 -0.000000 -32.862282
LeftUpLeg -10.117393 4.060723 40.551266
LeftLeg 12.080258 -0.000000 -0.000000
LeftFoot -12.348404 16.957636 -18.153876
LeftToeBase -9.477944 -0.000000 0.000000
RightUpLeg -60.634126 -41.567988 -42.922338
RightLeg 152.493782 -0.000000 -0.000000
RightFoot 46.940102 13.263464 -4.745325
RightToeBase 38.557908 -0.000000 -0.000000
